<svg id="Capa_1" data-name="Capa 1" xmlns="http://www.w3.org/2000/svg" viewBox="0 0 532.48 532.48"><defs><style>.cls-1{fill:#fff;}.cls-2,.cls-3{fill:#2b4448;}.cls-2{stroke:#fff;stroke-width:2px;}.cls-2,.cls-3,.cls-4{stroke-miterlimit:10;}.cls-3{stroke:red;stroke-width:0.25px;}.cls-4{font-size:113.12px;stroke:#000;stroke-width:6px;font-family:Existence-UnicaseLight, Existence;font-weight:300;}</style></defs><path class="cls-1" d="M396.09,543a241.69,241.69,0,0,1-170.9-412.59A241.69,241.69,0,1,1,567,472.18,240.1,240.1,0,0,1,396.09,543Z" transform="translate(-129.85 -35.04)"/><path d="M396.09,61.59a238.9,238.9,0,1,1-93.3,18.83,238.34,238.34,0,0,1,93.3-18.83m0-4c-134.59,0-243.69,109.1-243.69,243.69S261.5,545,396.09,545s243.69-109.1,243.69-243.69S530.68,57.59,396.09,57.59Z" transform="translate(-129.85 -35.04)"/><path d="M396.09,39A262.31,262.31,0,0,1,498.16,542.91,262.31,262.31,0,0,1,294,59.64,260.66,260.66,0,0,1,396.09,39m0-4c-147,0-266.24,119.2-266.24,266.24s119.2,266.24,266.24,266.24,266.24-119.2,266.24-266.24S543.13,35,396.09,35Z" transform="translate(-129.85 -35.04)"/><path class="cls-2" d="M352.1,162.52c30.61,37.49,41.68,64.28,41.71,64.32h0c-55.18,1.95-78.2-46.45-88.58-61.4-12.55-18.07-37.86-41.44-46.6-48.23h0c9.46-3.25,38-3.37,59.17,1,48.4,9.93,66.61,24.1,75,36.35,2.3,3.36,8.42,16.29,8.42,16.29,3.17-7.83,24.84-59.73,140-54.09.32,0,.2-.25,0,0-8.9,11.05-27.9,24.26-43.76,49.27-41.32,65.13-89.13,60.83-89.13,60.83,6.52-34,45.19-64.3,45.19-64.3C430.15,167.11,400,221.81,400,221.81S365.31,165.26,352.1,162.52Z" transform="translate(-129.85 -35.04)"/><rect class="cls-2" x="265.35" y="195.57" width="9.61" height="106.16"/><path class="cls-2" d="M332.74,259.49l66.45,100.43C360.28,380,278.22,336.39,332.74,259.49Z" transform="translate(-129.85 -35.04)"/><path class="cls-2" d="M468.58,259.49,400.81,359.92C440.49,380,524.18,336.39,468.58,259.49Z" transform="translate(-129.85 -35.04)"/><path class="cls-3" d="M398.76,194.44" transform="translate(-129.85 -35.04)"/><text class="cls-4" transform="translate(164.22 428.55) scale(1.4 1)">fün</text></svg>